blackwide.ufo
<glyph name="numbersign" format="1">
  <advance width="825"/>
  <unicode hex="0023"/>
  <outline>
    <contour>
      <point x="30" y="211"/>
      <point x="67" y="327"/>
      <point x="30" y="211" type="curve"/>
      <point x="241" y="211"/>
      <point x="452" y="211"/>
      <point x="664" y="211" type="curve"/>
      <point x="693" y="327"/>
      <point x="664" y="211"/>
      <point x="693" y="327" type="curve"/>
      <point x="484" y="327"/>
      <point x="275" y="327"/>
      <point x="67" y="327" type="curve"/>
    </contour>
    <contour>
      <point x="130" y="425"/>
      <point x="167" y="541"/>
      <point x="130" y="425" type="curve"/>
      <point x="341" y="425"/>
      <point x="552" y="425"/>
      <point x="764" y="425" type="curve"/>
      <point x="793" y="541"/>
      <point x="764" y="425"/>
      <point x="793" y="541" type="curve"/>
      <point x="584" y="541"/>
      <point x="375" y="541"/>
      <point x="167" y="541" type="curve"/>
    </contour>
    <contour>
      <point x="513" y="39"/>
      <point x="352" y="39"/>
      <point x="513" y="39" type="curve"/>
      <point x="513" y="39"/>
      <point x="795" y="722"/>
      <point x="795" y="722" type="curve"/>
      <point x="634" y="722"/>
      <point x="795" y="722"/>
      <point x="634" y="722" type="curve"/>
      <point x="634" y="722"/>
      <point x="352" y="39"/>
      <point x="352" y="39" type="curve"/>
    </contour>
    <contour>
      <point x="198" y="46"/>
      <point x="44" y="46"/>
      <point x="198" y="46" type="curve"/>
      <point x="198" y="46"/>
      <point x="478" y="722"/>
      <point x="478" y="722" type="curve"/>
      <point x="317" y="722"/>
      <point x="478" y="722"/>
      <point x="317" y="722" type="curve"/>
      <point x="317" y="722"/>
      <point x="44" y="46"/>
      <point x="44" y="46" type="curve"/>
    </contour>
  </outline>
</glyph>
<glyph name="dollar" format="1">
  <advance width="712"/>
  <unicode hex="0024"/>
  <outline>
    <contour>
      <point x="153" y="90"/>
      <point x="30" y="90"/>
      <point x="153" y="90" type="curve"/>
      <point x="153" y="90"/>
      <point x="153" y="90"/>
      <point x="153" y="90" type="curve"/>
      <point x="30" y="90"/>
      <point x="153" y="90"/>
      <point x="30" y="90" type="curve"/>
      <point x="30" y="90"/>
      <point x="30" y="90"/>
      <point x="30" y="90" type="curve"/>
    </contour>
    <contour>
      <point x="506" y="636"/>
      <point x="628" y="636"/>
      <point x="506" y="636" type="curve"/>
      <point x="506" y="636"/>
      <point x="506" y="636"/>
      <point x="506" y="636" type="curve"/>
      <point x="628" y="636"/>
      <point x="506" y="636"/>
      <point x="628" y="636" type="curve"/>
      <point x="628" y="636"/>
      <point x="628" y="636"/>
      <point x="628" y="636" type="curve"/>
    </contour>
    <contour>
      <point x="403" y="12"/>
      <point x="242" y="12"/>
      <point x="403" y="12" type="curve"/>
      <point x="403" y="41"/>
      <point x="403" y="70"/>
      <point x="403" y="100" type="curve"/>
      <point x="242" y="100"/>
      <point x="403" y="100"/>
      <point x="242" y="100" type="curve"/>
      <point x="242" y="70"/>
      <point x="242" y="41"/>
      <point x="242" y="12" type="curve"/>
    </contour>
    <contour>
      <point x="418" y="629"/>
      <point x="258" y="629"/>
      <point x="418" y="629" type="curve"/>
      <point x="418" y="658"/>
      <point x="418" y="688"/>
      <point x="418" y="717" type="curve"/>
      <point x="258" y="717"/>
      <point x="418" y="717"/>
      <point x="258" y="717" type="curve"/>
      <point x="258" y="688"/>
      <point x="258" y="658"/>
      <point x="258" y="629" type="curve"/>
    </contour>
    <contour>
      <point x="33" y="90"/>
      <point x="120" y="195"/>
      <point x="33" y="90" type="curve"/>
      <point x="114" y="63"/>
      <point x="209" y="41"/>
      <point x="315" y="41" type="curve"/>
      <point x="510" y="41"/>
      <point x="682" y="72"/>
      <point x="682" y="223" type="curve"/>
      <point x="682" y="353"/>
      <point x="536" y="384"/>
      <point x="389" y="426" type="curve"/>
      <point x="296" y="452"/>
      <point x="196" y="467"/>
      <point x="196" y="518" type="curve"/>
      <point x="196" y="557"/>
      <point x="266" y="572"/>
      <point x="342" y="572" type="curve"/>
      <point x="420" y="572"/>
      <point x="476" y="563"/>
      <point x="548" y="537" type="curve"/>
      <point x="628" y="636"/>
      <point x="548" y="537"/>
      <point x="628" y="636" type="curve"/>
      <point x="531" y="670"/>
      <point x="455" y="688"/>
      <point x="349" y="688" type="curve"/>
      <point x="178" y="688"/>
      <point x="35" y="652"/>
      <point x="35" y="518" type="curve"/>
      <point x="35" y="395"/>
      <point x="154" y="360"/>
      <point x="294" y="321" type="curve"/>
      <point x="397" y="292"/>
      <point x="522" y="274"/>
      <point x="522" y="217" type="curve"/>
      <point x="522" y="165"/>
      <point x="427" y="158"/>
      <point x="330" y="158" type="curve"/>
      <point x="251" y="158"/>
      <point x="180" y="176"/>
      <point x="120" y="195" type="curve"/>
    </contour>
  </outline>
</glyph>
<glyph name="plus" format="1">
  <advance width="806"/>
  <unicode hex="002B"/>
  <outline>
    <contour>
      <point x="30" y="245"/>
      <point x="30" y="373"/>
      <point x="30" y="245" type="curve"/>
      <point x="30" y="245"/>
      <point x="776" y="245"/>
      <point x="776" y="245" type="curve"/>
      <point x="776" y="373"/>
      <point x="776" y="245"/>
      <point x="776" y="373" type="curve"/>
      <point x="776" y="373"/>
      <point x="30" y="373"/>
      <point x="30" y="373" type="curve"/>
    </contour>
    <contour>
      <point x="483" y="18"/>
      <point x="323" y="18"/>
      <point x="483" y="18" type="curve"/>
      <point x="483" y="18"/>
      <point x="483" y="588"/>
      <point x="483" y="588" type="curve"/>
      <point x="323" y="588"/>
      <point x="483" y="588"/>
      <point x="323" y="588" type="curve"/>
      <point x="323" y="588"/>
      <point x="323" y="18"/>
      <point x="323" y="18" type="curve"/>
    </contour>
  </outline>
</glyph>
<glyph name="hyphen" format="1">
  <advance width="439"/>
  <unicode hex="002D"/>
  <outline>
    <contour>
      <point x="30" y="208"/>
      <point x="30" y="336"/>
      <point x="30" y="208" type="curve"/>
      <point x="156" y="208"/>
      <point x="282" y="208"/>
      <point x="408" y="208" type="curve"/>
      <point x="408" y="336"/>
      <point x="408" y="208"/>
      <point x="408" y="336" type="curve"/>
      <point x="282" y="336"/>
      <point x="156" y="336"/>
      <point x="30" y="336" type="curve"/>
    </contour>
  </outline>
</glyph>
<glyph name="period" format="1">
  <advance width="249"/>
  <unicode hex="002E"/>
  <outline>
    <contour>
      <point x="219" y="18"/>
      <point x="30" y="18"/>
      <point x="219" y="18" type="curve"/>
      <point x="219" y="70"/>
      <point x="178" y="94"/>
      <point x="123" y="94" type="curve"/>
      <point x="68" y="94"/>
      <point x="30" y="67"/>
      <point x="30" y="18" type="curve"/>
      <point x="219" y="18"/>
      <point x="30" y="18"/>
      <point x="219" y="18" type="curve"/>
      <point x="219" y="-35"/>
      <point x="178" y="-57"/>
      <point x="123" y="-57" type="curve"/>
      <point x="67" y="-57"/>
      <point x="30" y="-33"/>
      <point x="30" y="18" type="curve"/>
    </contour>
  </outline>
</glyph>
<glyph name="slash" format="1">
  <advance width="775"/>
  <unicode hex="002F"/>
  <outline>
    <contour>
      <point x="191" y="-68"/>
      <point x="30" y="-68"/>
      <point x="191" y="-68" type="curve"/>
      <point x="375" y="236"/>
      <point x="560" y="540"/>
      <point x="744" y="844" type="curve"/>
      <point x="584" y="844"/>
      <point x="744" y="844"/>
      <point x="584" y="844" type="curve"/>
      <point x="399" y="540"/>
      <point x="215" y="236"/>
      <point x="30" y="-68" type="curve"/>
    </contour>
  </outline>
</glyph>
<glyph name="semicolon" format="1">
  <advance width="402"/>
  <unicode hex="003B"/>
  <outline>
    <contour>
      <point x="316" y="307"/>
      <point x="127" y="307"/>
      <point x="316" y="307" type="curve"/>
      <point x="316" y="359"/>
      <point x="275" y="383"/>
      <point x="220" y="383" type="curve"/>
      <point x="165" y="383"/>
      <point x="127" y="356"/>
      <point x="127" y="307" type="curve"/>
      <point x="316" y="307"/>
      <point x="127" y="307"/>
      <point x="316" y="307" type="curve"/>
      <point x="316" y="254"/>
      <point x="276" y="232"/>
      <point x="220" y="232" type="curve"/>
      <point x="164" y="232"/>
      <point x="127" y="256"/>
      <point x="127" y="307" type="curve"/>
    </contour>
    <contour>
      <point x="220" y="-99"/>
      <point x="30" y="-99"/>
      <point x="220" y="-99" type="curve"/>
      <point x="268" y="-37"/>
      <point x="324" y="20"/>
      <point x="372" y="82" type="curve"/>
      <point x="153" y="82"/>
      <point x="372" y="82"/>
      <point x="153" y="82" type="curve"/>
      <point x="109" y="24"/>
      <point x="74" y="-41"/>
      <point x="30" y="-99" type="curve"/>
    </contour>
  </outline>
</glyph>
<glyph name="C" format="1">
  <advance width="903"/>
  <unicode hex="0043"/>
  <outline>
    <contour>
      <point x="719" y="654"/>
      <point x="842" y="654"/>
      <point x="719" y="654" type="curve"/>
      <point x="719" y="654"/>
      <point x="719" y="654"/>
      <point x="719" y="654" type="curve"/>
      <point x="842" y="654"/>
      <point x="719" y="654"/>
      <point x="842" y="654" type="curve"/>
      <point x="842" y="654"/>
      <point x="842" y="654"/>
      <point x="842" y="654" type="curve"/>
    </contour>
    <contour>
      <point x="842" y="654"/>
      <point x="754" y="561"/>
      <point x="842" y="654" type="curve"/>
      <point x="741" y="696"/>
      <point x="635" y="727"/>
      <point x="516" y="727" type="curve"/>
      <point x="233" y="727"/>
      <point x="30" y="608"/>
      <point x="30" y="344" type="curve"/>
      <point x="30" y="100"/>
      <point x="219" y="-5"/>
      <point x="483" y="-5" type="curve"/>
      <point x="638" y="-5"/>
      <point x="740" y="22"/>
      <point x="873" y="93" type="curve"/>
      <point x="770" y="186"/>
      <point x="873" y="93"/>
      <point x="770" y="186" type="curve"/>
      <point x="677" y="133"/>
      <point x="600" y="117"/>
      <point x="490" y="117" type="curve"/>
      <point x="316" y="117"/>
      <point x="191" y="188"/>
      <point x="191" y="350" type="curve"/>
      <point x="191" y="524"/>
      <point x="323" y="605"/>
      <point x="509" y="605" type="curve"/>
      <point x="597" y="605"/>
      <point x="679" y="593"/>
      <point x="754" y="561" type="curve"/>
    </contour>
  </outline>
</glyph>
<glyph name="F" format="1">
  <advance width="659"/>
  <unicode hex="0046"/>
  <outline>
    <contour>
      <point x="110" y="0"/>
      <point x="110" y="117"/>
      <point x="110" y="0" type="curve"/>
      <point x="110" y="0"/>
      <point x="110" y="0"/>
      <point x="110" y="0" type="curve"/>
      <point x="110" y="117"/>
      <point x="110" y="0"/>
      <point x="110" y="117" type="curve"/>
      <point x="110" y="117"/>
      <point x="110" y="117"/>
      <point x="110" y="117" type="curve"/>
    </contour>
    <contour>
      <point x="534" y="372"/>
      <point x="411" y="372"/>
      <point x="534" y="372" type="curve"/>
      <point x="534" y="372"/>
      <point x="534" y="372"/>
      <point x="534" y="372" type="curve"/>
      <point x="411" y="372"/>
      <point x="534" y="372"/>
      <point x="411" y="372" type="curve"/>
      <point x="411" y="372"/>
      <point x="411" y="372"/>
      <point x="411" y="372" type="curve"/>
    </contour>
    <contour>
      <point x="110" y="722"/>
      <point x="110" y="605"/>
      <point x="110" y="722" type="curve"/>
      <point x="110" y="722"/>
      <point x="110" y="722"/>
      <point x="110" y="722" type="curve"/>
      <point x="110" y="605"/>
      <point x="110" y="722"/>
      <point x="110" y="605" type="curve"/>
      <point x="110" y="605"/>
      <point x="110" y="605"/>
      <point x="110" y="605" type="curve"/>
    </contour>
    <contour>
      <point x="411" y="372"/>
      <point x="534" y="372"/>
      <point x="411" y="372" type="curve"/>
      <point x="411" y="372"/>
      <point x="411" y="372"/>
      <point x="411" y="372" type="curve"/>
      <point x="534" y="372"/>
      <point x="411" y="372"/>
      <point x="534" y="372" type="curve"/>
      <point x="534" y="372"/>
      <point x="534" y="372"/>
      <point x="534" y="372" type="curve"/>
    </contour>
    <contour>
      <point x="110" y="117"/>
      <point x="110" y="0"/>
      <point x="110" y="117" type="curve"/>
      <point x="110" y="117"/>
      <point x="110" y="117"/>
      <point x="110" y="117" type="curve"/>
      <point x="110" y="0"/>
      <point x="110" y="117"/>
      <point x="110" y="0" type="curve"/>
      <point x="110" y="0"/>
      <point x="110" y="0"/>
      <point x="110" y="0" type="curve"/>
    </contour>
    <contour>
      <point x="506" y="664"/>
      <point x="629" y="664"/>
      <point x="506" y="664" type="curve"/>
      <point x="506" y="664"/>
      <point x="506" y="664"/>
      <point x="506" y="664" type="curve"/>
      <point x="629" y="664"/>
      <point x="506" y="664"/>
      <point x="629" y="664" type="curve"/>
      <point x="629" y="664"/>
      <point x="629" y="664"/>
      <point x="629" y="664" type="curve"/>
    </contour>
    <contour>
      <point x="116" y="314"/>
      <point x="116" y="431"/>
      <point x="116" y="314" type="curve"/>
      <point x="255" y="314"/>
      <point x="395" y="314"/>
      <point x="534" y="314" type="curve"/>
      <point x="534" y="431"/>
      <point x="534" y="314"/>
      <point x="534" y="431" type="curve"/>
      <point x="395" y="431"/>
      <point x="255" y="431"/>
      <point x="116" y="431" type="curve"/>
    </contour>
    <contour>
      <point x="191" y="0"/>
      <point x="30" y="0"/>
      <point x="191" y="0" type="curve"/>
      <point x="191" y="0"/>
      <point x="191" y="722"/>
      <point x="191" y="722" type="curve"/>
      <point x="30" y="722"/>
      <point x="191" y="722"/>
      <point x="30" y="722" type="curve"/>
      <point x="30" y="481"/>
      <point x="30" y="241"/>
      <point x="30" y="0" type="curve"/>
    </contour>
    <contour>
      <point x="96" y="605"/>
      <point x="96" y="722"/>
      <point x="96" y="605" type="curve"/>
      <point x="274" y="605"/>
      <point x="451" y="605"/>
      <point x="629" y="605" type="curve"/>
      <point x="629" y="722"/>
      <point x="629" y="605"/>
      <point x="629" y="722" type="curve"/>
      <point x="451" y="722"/>
      <point x="274" y="722"/>
      <point x="96" y="722" type="curve"/>
    </contour>
  </outline>
</glyph>
<glyph name="G" format="1">
  <advance width="967"/>
  <unicode hex="0047"/>
  <outline>
    <contour>
      <point x="792" y="646"/>
      <point x="914" y="646"/>
      <point x="792" y="646" type="curve"/>
      <point x="792" y="646"/>
      <point x="792" y="646"/>
      <point x="792" y="646" type="curve"/>
      <point x="914" y="646"/>
      <point x="792" y="646"/>
      <point x="914" y="646" type="curve"/>
      <point x="914" y="646"/>
      <point x="914" y="646"/>
      <point x="914" y="646" type="curve"/>
    </contour>
    <contour>
      <point x="893" y="374"/>
      <point x="893" y="257"/>
      <point x="893" y="374" type="curve"/>
      <point x="798" y="374"/>
      <point x="702" y="374"/>
      <point x="607" y="374" type="curve"/>
      <point x="607" y="257"/>
      <point x="607" y="374"/>
      <point x="607" y="257" type="curve"/>
      <point x="702" y="257"/>
      <point x="798" y="257"/>
      <point x="893" y="257" type="curve"/>
    </contour>
    <contour>
      <point x="936" y="79"/>
      <point x="790" y="79"/>
      <point x="936" y="79" type="curve"/>
      <point x="936" y="177"/>
      <point x="936" y="275"/>
      <point x="936" y="374" type="curve"/>
      <point x="790" y="374"/>
      <point x="936" y="374"/>
      <point x="790" y="374" type="curve"/>
      <point x="790" y="275"/>
      <point x="790" y="177"/>
      <point x="790" y="79" type="curve"/>
    </contour>
    <contour>
      <point x="914" y="646"/>
      <point x="834" y="546"/>
      <point x="914" y="646" type="curve"/>
      <point x="781" y="704"/>
      <point x="667" y="727"/>
      <point x="522" y="727" type="curve"/>
      <point x="238" y="727"/>
      <point x="30" y="621"/>
      <point x="30" y="359" type="curve"/>
      <point x="30" y="94"/>
      <point x="246" y="-5"/>
      <point x="537" y="-5" type="curve"/>
      <point x="692" y="-5"/>
      <point x="792" y="23"/>
      <point x="936" y="79" type="curve"/>
      <point x="856" y="166"/>
      <point x="936" y="79"/>
      <point x="856" y="166" type="curve"/>
      <point x="743" y="123"/>
      <point x="658" y="117"/>
      <point x="537" y="117" type="curve"/>
      <point x="337" y="117"/>
      <point x="191" y="188"/>
      <point x="191" y="371" type="curve"/>
      <point x="191" y="542"/>
      <point x="333" y="605"/>
      <point x="522" y="605" type="curve"/>
      <point x="637" y="605"/>
      <point x="728" y="592"/>
      <point x="834" y="546" type="curve"/>
    </contour>
  </outline>
</glyph>
<glyph name="H" format="1">
  <advance width="877"/>
  <unicode hex="0048"/>
  <outline>
    <contour>
      <point x="768" y="605"/>
      <point x="768" y="722"/>
      <point x="768" y="605" type="curve"/>
      <point x="768" y="605"/>
      <point x="768" y="605"/>
      <point x="768" y="605" type="curve"/>
      <point x="768" y="722"/>
      <point x="768" y="605"/>
      <point x="768" y="722" type="curve"/>
      <point x="768" y="722"/>
      <point x="768" y="722"/>
      <point x="768" y="722" type="curve"/>
    </contour>
    <contour>
      <point x="768" y="0"/>
      <point x="768" y="117"/>
      <point x="768" y="0" type="curve"/>
      <point x="768" y="0"/>
      <point x="768" y="0"/>
      <point x="768" y="0" type="curve"/>
      <point x="768" y="117"/>
      <point x="768" y="0"/>
      <point x="768" y="117" type="curve"/>
      <point x="768" y="117"/>
      <point x="768" y="117"/>
      <point x="768" y="117" type="curve"/>
    </contour>
    <contour>
      <point x="768" y="117"/>
      <point x="768" y="0"/>
      <point x="768" y="117" type="curve"/>
      <point x="768" y="117"/>
      <point x="768" y="117"/>
      <point x="768" y="117" type="curve"/>
      <point x="768" y="0"/>
      <point x="768" y="117"/>
      <point x="768" y="0" type="curve"/>
      <point x="768" y="0"/>
      <point x="768" y="0"/>
      <point x="768" y="0" type="curve"/>
    </contour>
    <contour>
      <point x="768" y="722"/>
      <point x="768" y="605"/>
      <point x="768" y="722" type="curve"/>
      <point x="768" y="722"/>
      <point x="768" y="722"/>
      <point x="768" y="722" type="curve"/>
      <point x="768" y="605"/>
      <point x="768" y="722"/>
      <point x="768" y="605" type="curve"/>
      <point x="768" y="605"/>
      <point x="768" y="605"/>
      <point x="768" y="605" type="curve"/>
    </contour>
    <contour>
      <point x="110" y="605"/>
      <point x="110" y="722"/>
      <point x="110" y="605" type="curve"/>
      <point x="110" y="605"/>
      <point x="110" y="605"/>
      <point x="110" y="605" type="curve"/>
      <point x="110" y="722"/>
      <point x="110" y="605"/>
      <point x="110" y="722" type="curve"/>
      <point x="110" y="722"/>
      <point x="110" y="722"/>
      <point x="110" y="722" type="curve"/>
    </contour>
    <contour>
      <point x="110" y="722"/>
      <point x="110" y="605"/>
      <point x="110" y="722" type="curve"/>
      <point x="110" y="722"/>
      <point x="110" y="722"/>
      <point x="110" y="722" type="curve"/>
      <point x="110" y="605"/>
      <point x="110" y="722"/>
      <point x="110" y="605" type="curve"/>
      <point x="110" y="605"/>
      <point x="110" y="605"/>
      <point x="110" y="605" type="curve"/>
    </contour>
    <contour>
      <point x="110" y="0"/>
      <point x="110" y="117"/>
      <point x="110" y="0" type="curve"/>
      <point x="110" y="0"/>
      <point x="110" y="0"/>
      <point x="110" y="0" type="curve"/>
      <point x="110" y="117"/>
      <point x="110" y="0"/>
      <point x="110" y="117" type="curve"/>
      <point x="110" y="117"/>
      <point x="110" y="117"/>
      <point x="110" y="117" type="curve"/>
    </contour>
    <contour>
      <point x="110" y="117"/>
      <point x="110" y="0"/>
      <point x="110" y="117" type="curve"/>
      <point x="110" y="117"/>
      <point x="110" y="117"/>
      <point x="110" y="117" type="curve"/>
      <point x="110" y="0"/>
      <point x="110" y="117"/>
      <point x="110" y="0" type="curve"/>
      <point x="110" y="0"/>
      <point x="110" y="0"/>
      <point x="110" y="0" type="curve"/>
    </contour>
    <contour>
      <point x="191" y="0"/>
      <point x="30" y="0"/>
      <point x="191" y="0" type="curve"/>
      <point x="191" y="0"/>
      <point x="191" y="722"/>
      <point x="191" y="722" type="curve"/>
      <point x="30" y="722"/>
      <point x="191" y="722"/>
      <point x="30" y="722" type="curve"/>
      <point x="30" y="481"/>
      <point x="30" y="241"/>
      <point x="30" y="0" type="curve"/>
    </contour>
    <contour>
      <point x="764" y="421"/>
      <point x="764" y="304"/>
      <point x="764" y="421" type="curve"/>
      <point x="546" y="421"/>
      <point x="328" y="421"/>
      <point x="110" y="421" type="curve"/>
      <point x="110" y="304"/>
      <point x="110" y="421"/>
      <point x="110" y="304" type="curve"/>
      <point x="328" y="304"/>
      <point x="546" y="304"/>
      <point x="764" y="304" type="curve"/>
    </contour>
    <contour>
      <point x="847" y="0"/>
      <point x="687" y="0"/>
      <point x="847" y="0" type="curve"/>
      <point x="847" y="207"/>
      <point x="847" y="515"/>
      <point x="847" y="722" type="curve"/>
      <point x="687" y="722"/>
      <point x="847" y="722"/>
      <point x="687" y="722" type="curve"/>
      <point x="687" y="722"/>
      <point x="687" y="0"/>
      <point x="687" y="0" type="curve"/>
    </contour>
  </outline>
</glyph>
<glyph name="J" format="1">
  <advance width="547"/>
  <unicode hex="004A"/>
  <outline>
    <contour>
      <point x="438" y="722"/>
      <point x="438" y="605"/>
      <point x="438" y="722" type="curve"/>
      <point x="438" y="722"/>
      <point x="438" y="722"/>
      <point x="438" y="722" type="curve"/>
      <point x="438" y="605"/>
      <point x="438" y="722"/>
      <point x="438" y="605" type="curve"/>
      <point x="438" y="605"/>
      <point x="438" y="605"/>
      <point x="438" y="605" type="curve"/>
    </contour>
    <contour>
      <point x="438" y="605"/>
      <point x="438" y="722"/>
      <point x="438" y="605" type="curve"/>
      <point x="438" y="605"/>
      <point x="438" y="605"/>
      <point x="438" y="605" type="curve"/>
      <point x="438" y="722"/>
      <point x="438" y="605"/>
      <point x="438" y="722" type="curve"/>
      <point x="438" y="722"/>
      <point x="438" y="722"/>
      <point x="438" y="722" type="curve"/>
    </contour>
    <contour>
      <point x="30" y="51"/>
      <point x="103" y="144"/>
      <point x="30" y="51" type="curve"/>
      <point x="74" y="28"/>
      <point x="137" y="1"/>
      <point x="212" y="1" type="curve"/>
      <point x="395" y="1"/>
      <point x="517" y="82"/>
      <point x="517" y="253" type="curve"/>
      <point x="517" y="410"/>
      <point x="517" y="566"/>
      <point x="517" y="723" type="curve"/>
      <point x="357" y="723"/>
      <point x="517" y="723"/>
      <point x="357" y="723" type="curve"/>
      <point x="357" y="566"/>
      <point x="357" y="410"/>
      <point x="357" y="253" type="curve"/>
      <point x="357" y="166"/>
      <point x="301" y="117"/>
      <point x="212" y="117" type="curve"/>
      <point x="169" y="117"/>
      <point x="140" y="128"/>
      <point x="103" y="144" type="curve"/>
    </contour>
  </outline>
</glyph>
<glyph name="L" format="1">
  <advance width="687"/>
  <unicode hex="004C"/>
  <outline>
    <contour>
      <point x="658" y="58"/>
      <point x="535" y="58"/>
      <point x="658" y="58" type="curve"/>
      <point x="658" y="58"/>
      <point x="658" y="58"/>
      <point x="658" y="58" type="curve"/>
      <point x="535" y="58"/>
      <point x="658" y="58"/>
      <point x="535" y="58" type="curve"/>
      <point x="535" y="58"/>
      <point x="535" y="58"/>
      <point x="535" y="58" type="curve"/>
    </contour>
    <contour>
      <point x="109" y="117"/>
      <point x="109" y="0"/>
      <point x="109" y="117" type="curve"/>
      <point x="109" y="117"/>
      <point x="109" y="117"/>
      <point x="109" y="117" type="curve"/>
      <point x="109" y="0"/>
      <point x="109" y="117"/>
      <point x="109" y="0" type="curve"/>
      <point x="109" y="0"/>
      <point x="109" y="0"/>
      <point x="109" y="0" type="curve"/>
    </contour>
    <contour>
      <point x="109" y="722"/>
      <point x="109" y="605"/>
      <point x="109" y="722" type="curve"/>
      <point x="109" y="722"/>
      <point x="109" y="722"/>
      <point x="109" y="722" type="curve"/>
      <point x="109" y="605"/>
      <point x="109" y="722"/>
      <point x="109" y="605" type="curve"/>
      <point x="109" y="605"/>
      <point x="109" y="605"/>
      <point x="109" y="605" type="curve"/>
    </contour>
    <contour>
      <point x="109" y="605"/>
      <point x="109" y="722"/>
      <point x="109" y="605" type="curve"/>
      <point x="109" y="605"/>
      <point x="109" y="605"/>
      <point x="109" y="605" type="curve"/>
      <point x="109" y="722"/>
      <point x="109" y="605"/>
      <point x="109" y="722" type="curve"/>
      <point x="109" y="722"/>
      <point x="109" y="722"/>
      <point x="109" y="722" type="curve"/>
    </contour>
    <contour>
      <point x="191" y="0"/>
      <point x="30" y="0"/>
      <point x="191" y="0" type="curve"/>
      <point x="191" y="241"/>
      <point x="191" y="481"/>
      <point x="191" y="722" type="curve"/>
      <point x="30" y="722"/>
      <point x="191" y="722"/>
      <point x="30" y="722" type="curve"/>
      <point x="30" y="481"/>
      <point x="30" y="241"/>
      <point x="30" y="0" type="curve"/>
    </contour>
    <contour>
      <point x="109" y="0"/>
      <point x="109" y="117"/>
      <point x="109" y="0" type="curve"/>
      <point x="292" y="0"/>
      <point x="475" y="0"/>
      <point x="658" y="0" type="curve"/>
      <point x="658" y="117"/>
      <point x="658" y="0"/>
      <point x="658" y="117" type="curve"/>
      <point x="475" y="117"/>
      <point x="292" y="117"/>
      <point x="109" y="117" type="curve"/>
    </contour>
  </outline>
</glyph>
<glyph name="N" format="1">
  <advance width="952"/>
  <unicode hex="004E"/>
  <outline>
    <contour>
      <point x="127" y="722"/>
      <point x="127" y="605"/>
      <point x="127" y="722" type="curve"/>
      <point x="127" y="722"/>
      <point x="127" y="722"/>
      <point x="127" y="722" type="curve"/>
      <point x="127" y="605"/>
      <point x="127" y="722"/>
      <point x="127" y="605" type="curve"/>
      <point x="127" y="605"/>
      <point x="127" y="605"/>
      <point x="127" y="605" type="curve"/>
    </contour>
    <contour>
      <point x="829" y="605"/>
      <point x="829" y="722"/>
      <point x="829" y="605" type="curve"/>
      <point x="829" y="605"/>
      <point x="829" y="605"/>
      <point x="829" y="605" type="curve"/>
      <point x="829" y="722"/>
      <point x="829" y="605"/>
      <point x="829" y="722" type="curve"/>
      <point x="829" y="722"/>
      <point x="829" y="722"/>
      <point x="829" y="722" type="curve"/>
    </contour>
    <contour>
      <point x="829" y="722"/>
      <point x="829" y="605"/>
      <point x="829" y="722" type="curve"/>
      <point x="829" y="722"/>
      <point x="829" y="722"/>
      <point x="829" y="722" type="curve"/>
      <point x="829" y="605"/>
      <point x="829" y="722"/>
      <point x="829" y="605" type="curve"/>
      <point x="829" y="605"/>
      <point x="829" y="605"/>
      <point x="829" y="605" type="curve"/>
    </contour>
    <contour>
      <point x="125" y="117"/>
      <point x="125" y="0"/>
      <point x="125" y="117" type="curve"/>
      <point x="125" y="117"/>
      <point x="125" y="117"/>
      <point x="125" y="117" type="curve"/>
      <point x="125" y="0"/>
      <point x="125" y="117"/>
      <point x="125" y="0" type="curve"/>
      <point x="125" y="0"/>
      <point x="125" y="0"/>
      <point x="125" y="0" type="curve"/>
    </contour>
    <contour>
      <point x="125" y="0"/>
      <point x="125" y="117"/>
      <point x="125" y="0" type="curve"/>
      <point x="125" y="0"/>
      <point x="125" y="0"/>
      <point x="125" y="0" type="curve"/>
      <point x="125" y="117"/>
      <point x="125" y="0"/>
      <point x="125" y="117" type="curve"/>
      <point x="125" y="117"/>
      <point x="125" y="117"/>
      <point x="125" y="117" type="curve"/>
    </contour>
    <contour>
      <point x="923" y="0"/>
      <point x="726" y="0"/>
      <point x="923" y="0" type="curve"/>
      <point x="691" y="241"/>
      <point x="459" y="481"/>
      <point x="227" y="722" type="curve"/>
      <point x="30" y="722"/>
      <point x="227" y="722"/>
      <point x="30" y="722" type="curve"/>
      <point x="262" y="481"/>
      <point x="494" y="241"/>
      <point x="726" y="0" type="curve"/>
    </contour>
    <contour>
      <point x="757" y="722"/>
      <point x="908" y="722"/>
      <point x="747" y="722" type="curve"/>
      <point x="747" y="481"/>
      <point x="747" y="241"/>
      <point x="747" y="0" type="curve"/>
      <point x="908" y="0"/>
      <point x="757" y="0"/>
      <point x="918" y="0" type="curve"/>
      <point x="918" y="241"/>
      <point x="918" y="481"/>
      <point x="918" y="722" type="curve"/>
    </contour>
    <contour>
      <point x="196" y="0"/>
      <point x="45" y="0"/>
      <point x="206" y="0" type="curve"/>
      <point x="206" y="241"/>
      <point x="206" y="481"/>
      <point x="206" y="722" type="curve"/>
      <point x="45" y="722"/>
      <point x="196" y="722"/>
      <point x="35" y="722" type="curve"/>
      <point x="35" y="481"/>
      <point x="35" y="241"/>
      <point x="35" y="0" type="curve"/>
    </contour>
  </outline>
</glyph>
<glyph name="R" format="1">
  <advance width="840"/>
  <unicode hex="0052"/>
  <outline>
    <contour>
      <point x="694" y="0"/>
      <point x="694" y="117"/>
      <point x="694" y="0" type="curve"/>
      <point x="694" y="0"/>
      <point x="694" y="0"/>
      <point x="694" y="0" type="curve"/>
      <point x="694" y="117"/>
      <point x="694" y="0"/>
      <point x="694" y="117" type="curve"/>
      <point x="694" y="117"/>
      <point x="694" y="117"/>
      <point x="694" y="117" type="curve"/>
    </contour>
    <contour>
      <point x="109" y="722"/>
      <point x="109" y="605"/>
      <point x="109" y="722" type="curve"/>
      <point x="109" y="722"/>
      <point x="109" y="722"/>
      <point x="109" y="722" type="curve"/>
      <point x="109" y="605"/>
      <point x="109" y="722"/>
      <point x="109" y="605" type="curve"/>
      <point x="109" y="605"/>
      <point x="109" y="605"/>
      <point x="109" y="605" type="curve"/>
    </contour>
    <contour>
      <point x="109" y="117"/>
      <point x="109" y="0"/>
      <point x="109" y="117" type="curve"/>
      <point x="109" y="117"/>
      <point x="109" y="117"/>
      <point x="109" y="117" type="curve"/>
      <point x="109" y="0"/>
      <point x="109" y="117"/>
      <point x="109" y="0" type="curve"/>
      <point x="109" y="0"/>
      <point x="109" y="0"/>
      <point x="109" y="0" type="curve"/>
    </contour>
    <contour>
      <point x="109" y="0"/>
      <point x="109" y="117"/>
      <point x="109" y="0" type="curve"/>
      <point x="109" y="0"/>
      <point x="109" y="0"/>
      <point x="109" y="0" type="curve"/>
      <point x="109" y="117"/>
      <point x="109" y="0"/>
      <point x="109" y="117" type="curve"/>
      <point x="109" y="117"/>
      <point x="109" y="117"/>
      <point x="109" y="117" type="curve"/>
    </contour>
    <contour>
      <point x="280" y="354"/>
      <point x="477" y="354"/>
      <point x="280" y="354" type="curve"/>
      <point x="391" y="236"/>
      <point x="502" y="118"/>
      <point x="613" y="0" type="curve"/>
      <point x="810" y="0"/>
      <point x="613" y="0"/>
      <point x="810" y="0" type="curve"/>
      <point x="699" y="118"/>
      <point x="588" y="236"/>
      <point x="477" y="354" type="curve"/>
    </contour>
    <contour>
      <point x="191" y="0"/>
      <point x="30" y="0"/>
      <point x="191" y="0" type="curve"/>
      <point x="191" y="241"/>
      <point x="191" y="481"/>
      <point x="191" y="722" type="curve"/>
      <point x="30" y="722"/>
      <point x="191" y="722"/>
      <point x="30" y="722" type="curve"/>
      <point x="30" y="481"/>
      <point x="30" y="241"/>
      <point x="30" y="0" type="curve"/>
    </contour>
    <contour>
      <point x="113" y="294"/>
      <point x="113" y="411"/>
      <point x="113" y="294" type="curve"/>
      <point x="184" y="294"/>
      <point x="254" y="294"/>
      <point x="325" y="294" type="curve"/>
      <point x="527" y="294"/>
      <point x="683" y="341"/>
      <point x="683" y="518" type="curve"/>
      <point x="683" y="680"/>
      <point x="540" y="722"/>
      <point x="356" y="722" type="curve"/>
      <point x="275" y="722"/>
      <point x="194" y="722"/>
      <point x="113" y="722" type="curve"/>
      <point x="113" y="605"/>
      <point x="113" y="722"/>
      <point x="113" y="605" type="curve"/>
      <point x="184" y="605"/>
      <point x="256" y="605"/>
      <point x="327" y="605" type="curve"/>
      <point x="434" y="605"/>
      <point x="523" y="597"/>
      <point x="523" y="506" type="curve"/>
      <point x="523" y="423"/>
      <point x="443" y="411"/>
      <point x="347" y="411" type="curve"/>
      <point x="269" y="411"/>
      <point x="191" y="411"/>
      <point x="113" y="411" type="curve"/>
    </contour>
  </outline>
</glyph>
<glyph name="V" format="1">
  <advance width="959"/>
  <unicode hex="0056"/>
  <outline>
    <contour>
      <point x="832" y="722"/>
      <point x="832" y="605"/>
      <point x="832" y="722" type="curve"/>
      <point x="755" y="722"/>
      <point x="901" y="722"/>
      <point x="824" y="722" type="curve"/>
      <point x="824" y="605"/>
      <point x="824" y="722"/>
      <point x="824" y="605" type="curve"/>
      <point x="1055" y="605"/>
      <point x="601" y="605"/>
      <point x="832" y="605" type="curve"/>
    </contour>
    <contour>
      <point x="127" y="722"/>
      <point x="127" y="605"/>
      <point x="127" y="722" type="curve"/>
      <point x="127" y="722"/>
      <point x="127" y="722"/>
      <point x="127" y="722" type="curve"/>
      <point x="127" y="605"/>
      <point x="127" y="722"/>
      <point x="127" y="605" type="curve"/>
      <point x="127" y="605"/>
      <point x="127" y="605"/>
      <point x="127" y="605" type="curve"/>
    </contour>
    <contour>
      <point x="832" y="605"/>
      <point x="832" y="722"/>
      <point x="832" y="605" type="curve"/>
      <point x="832" y="605"/>
      <point x="832" y="605"/>
      <point x="832" y="605" type="curve"/>
      <point x="832" y="722"/>
      <point x="832" y="605"/>
      <point x="832" y="722" type="curve"/>
      <point x="832" y="722"/>
      <point x="832" y="722"/>
      <point x="832" y="722" type="curve"/>
    </contour>
    <contour>
      <point x="127" y="605"/>
      <point x="127" y="722"/>
      <point x="127" y="605" type="curve"/>
      <point x="357" y="605"/>
      <point x="-78" y="605"/>
      <point x="152" y="605" type="curve"/>
      <point x="152" y="722"/>
      <point x="152" y="605"/>
      <point x="152" y="722" type="curve"/>
      <point x="76" y="722"/>
      <point x="204" y="722"/>
      <point x="127" y="722" type="curve"/>
    </contour>
    <contour>
      <point x="766" y="722"/>
      <point x="928" y="722"/>
      <point x="766" y="722" type="curve"/>
      <point x="645" y="481"/>
      <point x="525" y="241"/>
      <point x="405" y="0" type="curve"/>
      <point x="568" y="0"/>
      <point x="405" y="0"/>
      <point x="568" y="0" type="curve"/>
      <point x="688" y="241"/>
      <point x="808" y="481"/>
      <point x="928" y="722" type="curve"/>
    </contour>
    <contour>
      <point x="30" y="722"/>
      <point x="193" y="722"/>
      <point x="30" y="722" type="curve"/>
      <point x="152" y="481"/>
      <point x="274" y="241"/>
      <point x="397" y="0" type="curve"/>
      <point x="559" y="0"/>
      <point x="397" y="0"/>
      <point x="559" y="0" type="curve"/>
      <point x="437" y="241"/>
      <point x="315" y="481"/>
      <point x="193" y="722" type="curve"/>
    </contour>
  </outline>
</glyph>
<glyph name="bracketright" format="1">
  <advance width="330"/>
  <unicode hex="005D"/>
  <outline>
    <contour>
      <point x="30" y="641"/>
      <point x="30" y="769"/>
      <point x="30" y="641" type="curve"/>
      <point x="96" y="641"/>
      <point x="163" y="641"/>
      <point x="229" y="641" type="curve"/>
      <point x="212" y="650"/>
      <point x="195" y="658"/>
      <point x="178" y="668" type="curve"/>
      <point x="163" y="679"/>
      <point x="155" y="698"/>
      <point x="140" y="710" type="curve"/>
      <point x="140" y="455"/>
      <point x="140" y="200"/>
      <point x="140" y="-55" type="curve"/>
      <point x="156" y="-43"/>
      <point x="166" y="-25"/>
      <point x="183" y="-14" type="curve"/>
      <point x="198" y="-3"/>
      <point x="215" y="6"/>
      <point x="230" y="17" type="curve"/>
      <point x="163" y="17"/>
      <point x="97" y="17"/>
      <point x="30" y="17" type="curve"/>
      <point x="30" y="-112"/>
      <point x="30" y="17"/>
      <point x="30" y="-112" type="curve"/>
      <point x="97" y="-112"/>
      <point x="163" y="-112"/>
      <point x="230" y="-112" type="curve"/>
      <point x="300" y="-112"/>
      <point x="230" y="-112"/>
      <point x="300" y="-112" type="curve"/>
      <point x="300" y="-55"/>
      <point x="300" y="-112"/>
      <point x="300" y="-55" type="curve"/>
      <point x="300" y="200"/>
      <point x="300" y="455"/>
      <point x="300" y="710" type="curve"/>
      <point x="300" y="769"/>
      <point x="300" y="710"/>
      <point x="300" y="769" type="curve"/>
      <point x="229" y="769"/>
      <point x="300" y="769"/>
      <point x="229" y="769" type="curve"/>
      <point x="163" y="769"/>
      <point x="96" y="769"/>
      <point x="30" y="769" type="curve"/>
    </contour>
  </outline>
</glyph>
<glyph name="b" format="1">
  <advance width="767"/>
  <unicode hex="0062"/>
  <outline>
    <contour>
      <point x="113" y="799"/>
      <point x="113" y="683"/>
      <point x="113" y="799" type="curve"/>
      <point x="113" y="799"/>
      <point x="113" y="799"/>
      <point x="113" y="799" type="curve"/>
      <point x="113" y="683"/>
      <point x="113" y="799"/>
      <point x="113" y="683" type="curve"/>
      <point x="113" y="683"/>
      <point x="113" y="683"/>
      <point x="113" y="683" type="curve"/>
    </contour>
    <contour>
      <point x="154" y="344"/>
      <point x="71" y="432"/>
      <point x="154" y="344" type="curve"/>
      <point x="204" y="384"/>
      <point x="291" y="416"/>
      <point x="384" y="416" type="curve"/>
      <point x="493" y="416"/>
      <point x="576" y="363"/>
      <point x="576" y="261" type="curve"/>
      <point x="579" y="163"/>
      <point x="493" y="116"/>
      <point x="386" y="117" type="curve"/>
      <point x="302" y="117"/>
      <point x="236" y="123"/>
      <point x="166" y="169" type="curve"/>
      <point x="61" y="99"/>
      <point x="166" y="169"/>
      <point x="61" y="99" type="curve"/>
      <point x="165" y="25"/>
      <point x="262" y="0"/>
      <point x="390" y="0" type="curve"/>
      <point x="584" y="0"/>
      <point x="738" y="89"/>
      <point x="737" y="267" type="curve"/>
      <point x="737" y="443"/>
      <point x="586" y="533"/>
      <point x="396" y="533" type="curve"/>
      <point x="264" y="533"/>
      <point x="143" y="489"/>
      <point x="71" y="432" type="curve"/>
    </contour>
    <contour>
      <point x="191" y="0"/>
      <point x="30" y="0"/>
      <point x="191" y="0" type="curve"/>
      <point x="191" y="267"/>
      <point x="191" y="533"/>
      <point x="191" y="800" type="curve"/>
      <point x="30" y="800"/>
      <point x="191" y="800"/>
      <point x="30" y="800" type="curve"/>
      <point x="30" y="533"/>
      <point x="30" y="267"/>
      <point x="30" y="0" type="curve"/>
    </contour>
    <contour>
      <point x="113" y="116"/>
      <point x="113" y="-1"/>
      <point x="113" y="116" type="curve"/>
      <point x="113" y="116"/>
      <point x="113" y="116"/>
      <point x="113" y="116" type="curve"/>
      <point x="113" y="-1"/>
      <point x="113" y="116"/>
      <point x="113" y="-1" type="curve"/>
      <point x="113" y="-1"/>
      <point x="113" y="-1"/>
      <point x="113" y="-1" type="curve"/>
    </contour>
  </outline>
</glyph>
<glyph name="d" format="1">
  <advance width="777"/>
  <unicode hex="0064"/>
  <outline>
    <contour>
      <point x="663" y="799"/>
      <point x="663" y="683"/>
      <point x="663" y="799" type="curve"/>
      <point x="663" y="799"/>
      <point x="663" y="799"/>
      <point x="663" y="799" type="curve"/>
      <point x="663" y="683"/>
      <point x="663" y="799"/>
      <point x="663" y="683" type="curve"/>
      <point x="663" y="683"/>
      <point x="663" y="683"/>
      <point x="663" y="683" type="curve"/>
    </contour>
    <contour>
      <point x="664" y="-1"/>
      <point x="664" y="116"/>
      <point x="664" y="-1" type="curve"/>
      <point x="664" y="-1"/>
      <point x="664" y="-1"/>
      <point x="664" y="-1" type="curve"/>
      <point x="664" y="116"/>
      <point x="664" y="-1"/>
      <point x="664" y="116" type="curve"/>
      <point x="664" y="116"/>
      <point x="664" y="116"/>
      <point x="664" y="116" type="curve"/>
    </contour>
    <contour>
      <point x="711" y="451"/>
      <point x="594" y="351"/>
      <point x="692" y="438" type="curve"/>
      <point x="602" y="500"/>
      <point x="510" y="532"/>
      <point x="395" y="532" type="curve"/>
      <point x="185" y="532"/>
      <point x="30" y="451"/>
      <point x="30" y="262" type="curve"/>
      <point x="30" y="74"/>
      <point x="190" y="0"/>
      <point x="403" y="0" type="curve"/>
      <point x="522" y="0"/>
      <point x="606" y="46"/>
      <point x="686" y="134" type="curve"/>
      <point x="588" y="215"/>
      <point x="711" y="112"/>
      <point x="613" y="193" type="curve"/>
      <point x="556" y="133"/>
      <point x="491" y="117"/>
      <point x="409" y="117" type="curve"/>
      <point x="289" y="117"/>
      <point x="191" y="161"/>
      <point x="191" y="268" type="curve"/>
      <point x="191" y="375"/>
      <point x="292" y="416"/>
      <point x="413" y="416" type="curve"/>
      <point x="490" y="416"/>
      <point x="555" y="407"/>
      <point x="613" y="364" type="curve"/>
    </contour>
    <contour>
      <point x="747" y="0"/>
      <point x="580" y="0"/>
      <point x="747" y="0" type="curve"/>
      <point x="747" y="267"/>
      <point x="747" y="533"/>
      <point x="747" y="800" type="curve"/>
      <point x="580" y="800"/>
      <point x="747" y="800"/>
      <point x="580" y="800" type="curve"/>
      <point x="580" y="533"/>
      <point x="580" y="267"/>
      <point x="580" y="0" type="curve"/>
    </contour>
  </outline>
</glyph>
<glyph name="e" format="1">
  <advance width="716"/>
  <unicode hex="0065"/>
  <outline>
    <contour>
      <point x="112" y="222"/>
      <point x="112" y="339"/>
      <point x="112" y="222" type="curve"/>
      <point x="281" y="222"/>
      <point x="450" y="222"/>
      <point x="620" y="222" type="curve"/>
      <point x="686" y="222"/>
      <point x="620" y="222"/>
      <point x="686" y="222" type="curve"/>
      <point x="686" y="274"/>
      <point x="686" y="222"/>
      <point x="686" y="274" type="curve"/>
      <point x="686" y="280"/>
      <point x="686" y="285"/>
      <point x="686" y="291" type="curve"/>
      <point x="686" y="464"/>
      <point x="555" y="533"/>
      <point x="369" y="533" type="curve"/>
      <point x="170" y="533"/>
      <point x="30" y="462"/>
      <point x="30" y="278" type="curve"/>
      <point x="30" y="78"/>
      <point x="183" y="0"/>
      <point x="399" y="0" type="curve"/>
      <point x="503" y="0"/>
      <point x="573" y="16"/>
      <point x="662" y="73" type="curve"/>
      <point x="560" y="160"/>
      <point x="662" y="73"/>
      <point x="560" y="160" type="curve"/>
      <point x="506" y="127"/>
      <point x="462" y="117"/>
      <point x="399" y="117" type="curve"/>
      <point x="277" y="117"/>
      <point x="191" y="165"/>
      <point x="191" y="278" type="curve"/>
      <point x="191" y="374"/>
      <point x="260" y="416"/>
      <point x="362" y="416" type="curve"/>
      <point x="460" y="416"/>
      <point x="532" y="390"/>
      <point x="532" y="303" type="curve"/>
      <point x="532" y="293"/>
      <point x="532" y="284"/>
      <point x="532" y="274" type="curve"/>
      <point x="548" y="284"/>
      <point x="559" y="300"/>
      <point x="575" y="309" type="curve"/>
      <point x="590" y="319"/>
      <point x="605" y="330"/>
      <point x="620" y="339" type="curve"/>
      <point x="450" y="339"/>
      <point x="281" y="339"/>
      <point x="112" y="339" type="curve"/>
    </contour>
  </outline>
</glyph>
<glyph name="o" format="1">
  <advance width="781"/>
  <unicode hex="006F"/>
  <outline>
    <contour>
      <point x="191" y="271"/>
      <point x="30" y="265"/>
      <point x="191" y="271" type="curve"/>
      <point x="191" y="373"/>
      <point x="272" y="416"/>
      <point x="383" y="416" type="curve"/>
      <point x="501" y="416"/>
      <point x="590" y="373"/>
      <point x="590" y="265" type="curve"/>
      <point x="590" y="161"/>
      <point x="507" y="117"/>
      <point x="394" y="117" type="curve"/>
      <point x="276" y="117"/>
      <point x="191" y="163"/>
      <point x="191" y="271" type="curve"/>
      <point x="30" y="265"/>
      <point x="191" y="271"/>
      <point x="30" y="265" type="curve"/>
      <point x="30" y="76"/>
      <point x="181" y="-5"/>
      <point x="387" y="-5" type="curve"/>
      <point x="597" y="-5"/>
      <point x="751" y="74"/>
      <point x="751" y="265" type="curve"/>
      <point x="751" y="456"/>
      <point x="598" y="538"/>
      <point x="390" y="538" type="curve"/>
      <point x="181" y="538"/>
      <point x="30" y="456"/>
      <point x="30" y="265" type="curve"/>
    </contour>
  </outline>
</glyph>
<glyph name="p" format="1">
  <advance width="766"/>
  <unicode hex="0070"/>
  <outline>
    <contour>
      <point x="110" y="-183"/>
      <point x="110" y="-300"/>
      <point x="110" y="-183" type="curve"/>
      <point x="110" y="-183"/>
      <point x="110" y="-183"/>
      <point x="110" y="-183" type="curve"/>
      <point x="110" y="-300"/>
      <point x="110" y="-183"/>
      <point x="110" y="-300" type="curve"/>
      <point x="110" y="-300"/>
      <point x="110" y="-300"/>
      <point x="110" y="-300" type="curve"/>
    </contour>
    <contour>
      <point x="110" y="-300"/>
      <point x="110" y="-183"/>
      <point x="110" y="-300" type="curve"/>
      <point x="110" y="-300"/>
      <point x="110" y="-300"/>
      <point x="110" y="-300" type="curve"/>
      <point x="110" y="-183"/>
      <point x="110" y="-300"/>
      <point x="110" y="-183" type="curve"/>
      <point x="110" y="-183"/>
      <point x="110" y="-183"/>
      <point x="110" y="-183" type="curve"/>
    </contour>
    <contour>
      <point x="112" y="533"/>
      <point x="112" y="416"/>
      <point x="112" y="533" type="curve"/>
      <point x="112" y="533"/>
      <point x="112" y="533"/>
      <point x="112" y="533" type="curve"/>
      <point x="112" y="416"/>
      <point x="112" y="533"/>
      <point x="112" y="416" type="curve"/>
      <point x="112" y="416"/>
      <point x="112" y="416"/>
      <point x="112" y="416" type="curve"/>
    </contour>
    <contour>
      <point x="150" y="340"/>
      <point x="74" y="422"/>
      <point x="150" y="340" type="curve"/>
      <point x="199" y="383"/>
      <point x="288" y="416"/>
      <point x="384" y="416" type="curve"/>
      <point x="496" y="416"/>
      <point x="576" y="351"/>
      <point x="576" y="243" type="curve"/>
      <point x="579" y="139"/>
      <point x="496" y="80"/>
      <point x="386" y="81" type="curve"/>
      <point x="300" y="81"/>
      <point x="231" y="87"/>
      <point x="161" y="136" type="curve"/>
      <point x="64" y="72"/>
      <point x="161" y="136"/>
      <point x="64" y="72" type="curve"/>
      <point x="165" y="-6"/>
      <point x="262" y="-36"/>
      <point x="390" y="-36" type="curve"/>
      <point x="587" y="-35"/>
      <point x="738" y="65"/>
      <point x="737" y="249" type="curve"/>
      <point x="737" y="432"/>
      <point x="589" y="533"/>
      <point x="396" y="533" type="curve"/>
      <point x="264" y="533"/>
      <point x="144" y="482"/>
      <point x="74" y="422" type="curve"/>
    </contour>
    <contour>
      <point x="191" y="-300"/>
      <point x="30" y="-300"/>
      <point x="191" y="-300" type="curve"/>
      <point x="191" y="-22"/>
      <point x="191" y="255"/>
      <point x="191" y="533" type="curve"/>
      <point x="30" y="533"/>
      <point x="191" y="533"/>
      <point x="30" y="533" type="curve"/>
      <point x="30" y="255"/>
      <point x="30" y="-22"/>
      <point x="30" y="-300" type="curve"/>
    </contour>
  </outline>
</glyph>
<glyph name="v" format="1">
  <advance width="781"/>
  <unicode hex="0076"/>
  <outline>
    <contour>
      <point x="124" y="533"/>
      <point x="124" y="416"/>
      <point x="124" y="533" type="curve"/>
      <point x="124" y="533"/>
      <point x="124" y="533"/>
      <point x="124" y="533" type="curve"/>
      <point x="124" y="416"/>
      <point x="124" y="533"/>
      <point x="124" y="416" type="curve"/>
      <point x="124" y="416"/>
      <point x="124" y="416"/>
      <point x="124" y="416" type="curve"/>
    </contour>
    <contour>
      <point x="124" y="416"/>
      <point x="124" y="533"/>
      <point x="124" y="416" type="curve"/>
      <point x="124" y="416"/>
      <point x="124" y="416"/>
      <point x="124" y="416" type="curve"/>
      <point x="124" y="533"/>
      <point x="124" y="416"/>
      <point x="124" y="533" type="curve"/>
      <point x="124" y="533"/>
      <point x="124" y="533"/>
      <point x="124" y="533" type="curve"/>
    </contour>
    <contour>
      <point x="656" y="533"/>
      <point x="656" y="416"/>
      <point x="656" y="533" type="curve"/>
      <point x="656" y="533"/>
      <point x="656" y="533"/>
      <point x="656" y="533" type="curve"/>
      <point x="656" y="416"/>
      <point x="656" y="533"/>
      <point x="656" y="416" type="curve"/>
      <point x="656" y="416"/>
      <point x="656" y="416"/>
      <point x="656" y="416" type="curve"/>
    </contour>
    <contour>
      <point x="656" y="416"/>
      <point x="656" y="533"/>
      <point x="656" y="416" type="curve"/>
      <point x="656" y="416"/>
      <point x="656" y="416"/>
      <point x="656" y="416" type="curve"/>
      <point x="656" y="533"/>
      <point x="656" y="416"/>
      <point x="656" y="533" type="curve"/>
      <point x="656" y="533"/>
      <point x="656" y="533"/>
      <point x="656" y="533" type="curve"/>
    </contour>
    <contour>
      <point x="30" y="533"/>
      <point x="193" y="533"/>
      <point x="30" y="533" type="curve"/>
      <point x="120" y="355"/>
      <point x="210" y="178"/>
      <point x="300" y="0" type="curve"/>
      <point x="461" y="0"/>
      <point x="300" y="0"/>
      <point x="461" y="0" type="curve"/>
      <point x="371" y="178"/>
      <point x="282" y="355"/>
      <point x="193" y="533" type="curve"/>
    </contour>
    <contour>
      <point x="589" y="533"/>
      <point x="750" y="533"/>
      <point x="589" y="533" type="curve"/>
      <point x="589" y="533"/>
      <point x="305" y="0"/>
      <point x="305" y="0" type="curve"/>
      <point x="467" y="0"/>
      <point x="305" y="0"/>
      <point x="467" y="0" type="curve"/>
      <point x="562" y="178"/>
      <point x="656" y="355"/>
      <point x="750" y="533" type="curve"/>
    </contour>
  </outline>
</glyph>
<glyph name="x" format="1">
  <advance width="830"/>
  <unicode hex="0078"/>
  <outline>
    <contour>
      <point x="148" y="117"/>
      <point x="148" y="0"/>
      <point x="148" y="117" type="curve"/>
      <point x="148" y="117"/>
      <point x="148" y="117"/>
      <point x="148" y="117" type="curve"/>
      <point x="148" y="0"/>
      <point x="148" y="117"/>
      <point x="148" y="0" type="curve"/>
      <point x="148" y="0"/>
      <point x="148" y="0"/>
      <point x="148" y="0" type="curve"/>
    </contour>
    <contour>
      <point x="683" y="117"/>
      <point x="683" y="0"/>
      <point x="683" y="117" type="curve"/>
      <point x="683" y="117"/>
      <point x="683" y="117"/>
      <point x="683" y="117" type="curve"/>
      <point x="683" y="0"/>
      <point x="683" y="117"/>
      <point x="683" y="0" type="curve"/>
      <point x="683" y="0"/>
      <point x="683" y="0"/>
      <point x="683" y="0" type="curve"/>
    </contour>
    <contour>
      <point x="683" y="0"/>
      <point x="683" y="117"/>
      <point x="683" y="0" type="curve"/>
      <point x="683" y="0"/>
      <point x="683" y="0"/>
      <point x="683" y="0" type="curve"/>
      <point x="683" y="117"/>
      <point x="683" y="0"/>
      <point x="683" y="117" type="curve"/>
      <point x="683" y="117"/>
      <point x="683" y="117"/>
      <point x="683" y="117" type="curve"/>
    </contour>
    <contour>
      <point x="148" y="0"/>
      <point x="148" y="117"/>
      <point x="148" y="0" type="curve"/>
      <point x="148" y="0"/>
      <point x="148" y="0"/>
      <point x="148" y="0" type="curve"/>
      <point x="148" y="117"/>
      <point x="148" y="0"/>
      <point x="148" y="117" type="curve"/>
      <point x="148" y="117"/>
      <point x="148" y="117"/>
      <point x="148" y="117" type="curve"/>
    </contour>
    <contour>
      <point x="663" y="416"/>
      <point x="663" y="533"/>
      <point x="663" y="416" type="curve"/>
      <point x="663" y="416"/>
      <point x="663" y="416"/>
      <point x="663" y="416" type="curve"/>
      <point x="663" y="533"/>
      <point x="663" y="416"/>
      <point x="663" y="533" type="curve"/>
      <point x="663" y="533"/>
      <point x="663" y="533"/>
      <point x="663" y="533" type="curve"/>
    </contour>
    <contour>
      <point x="174" y="533"/>
      <point x="174" y="416"/>
      <point x="174" y="533" type="curve"/>
      <point x="174" y="533"/>
      <point x="174" y="533"/>
      <point x="174" y="533" type="curve"/>
      <point x="174" y="416"/>
      <point x="174" y="533"/>
      <point x="174" y="416" type="curve"/>
      <point x="174" y="416"/>
      <point x="174" y="416"/>
      <point x="174" y="416" type="curve"/>
    </contour>
    <contour>
      <point x="174" y="416"/>
      <point x="174" y="533"/>
      <point x="174" y="416" type="curve"/>
      <point x="174" y="416"/>
      <point x="174" y="416"/>
      <point x="174" y="416" type="curve"/>
      <point x="174" y="533"/>
      <point x="174" y="416"/>
      <point x="174" y="533" type="curve"/>
      <point x="174" y="533"/>
      <point x="174" y="533"/>
      <point x="174" y="533" type="curve"/>
    </contour>
    <contour>
      <point x="663" y="533"/>
      <point x="663" y="416"/>
      <point x="663" y="533" type="curve"/>
      <point x="663" y="533"/>
      <point x="663" y="533"/>
      <point x="663" y="533" type="curve"/>
      <point x="663" y="416"/>
      <point x="663" y="533"/>
      <point x="663" y="416" type="curve"/>
      <point x="663" y="416"/>
      <point x="663" y="416"/>
      <point x="663" y="416" type="curve"/>
    </contour>
    <contour>
      <point x="800" y="0"/>
      <point x="602" y="0"/>
      <point x="800" y="0" type="curve"/>
      <point x="618" y="179"/>
      <point x="433" y="354"/>
      <point x="251" y="533" type="curve"/>
      <point x="69" y="533"/>
      <point x="251" y="533"/>
      <point x="69" y="533" type="curve"/>
      <point x="248" y="356"/>
      <point x="424" y="177"/>
      <point x="602" y="0" type="curve"/>
    </contour>
    <contour>
      <point x="588" y="533"/>
      <point x="770" y="533"/>
      <point x="588" y="533" type="curve"/>
      <point x="403" y="354"/>
      <point x="214" y="179"/>
      <point x="30" y="0" type="curve"/>
      <point x="234" y="0"/>
      <point x="30" y="0"/>
      <point x="234" y="0" type="curve"/>
      <point x="414" y="176"/>
      <point x="590" y="357"/>
      <point x="770" y="533" type="curve"/>
    </contour>
  </outline>
</glyph>
<glyph name="z" format="1">
  <advance width="672"/>
  <unicode hex="007A"/>
  <outline>
    <contour>
      <point x="86" y="416"/>
      <point x="86" y="533"/>
      <point x="86" y="416" type="curve"/>
      <point x="250" y="416"/>
      <point x="414" y="416"/>
      <point x="578" y="416" type="curve"/>
      <point x="566" y="430"/>
      <point x="542" y="422"/>
      <point x="531" y="436" type="curve"/>
      <point x="523" y="449"/>
      <point x="517" y="463"/>
      <point x="509" y="475" type="curve"/>
      <point x="499" y="466"/>
      <point x="481" y="475"/>
      <point x="471" y="466" type="curve"/>
      <point x="328" y="345"/>
      <point x="471" y="466"/>
      <point x="30" y="117" type="curve"/>
      <point x="30" y="58"/>
      <point x="30" y="117"/>
      <point x="30" y="58" type="curve"/>
      <point x="30" y="0"/>
      <point x="30" y="58"/>
      <point x="30" y="0" type="curve"/>
      <point x="88" y="0"/>
      <point x="30" y="0"/>
      <point x="88" y="0" type="curve"/>
      <point x="641" y="0"/>
      <point x="457" y="0"/>
      <point x="641" y="0" type="curve"/>
      <point x="641" y="117"/>
      <point x="641" y="0"/>
      <point x="641" y="117" type="curve"/>
      <point x="457" y="117"/>
      <point x="272" y="117"/>
      <point x="88" y="117" type="curve"/>
      <point x="100" y="109"/>
      <point x="116" y="108"/>
      <point x="128" y="100" type="curve"/>
      <point x="138" y="87"/>
      <point x="144" y="71"/>
      <point x="154" y="58" type="curve"/>
      <point x="165" y="67"/>
      <point x="182" y="58"/>
      <point x="193" y="67" type="curve"/>
      <point x="337" y="189"/>
      <point x="193" y="67"/>
      <point x="641" y="416" type="curve"/>
      <point x="641" y="475"/>
      <point x="641" y="416"/>
      <point x="641" y="475" type="curve"/>
      <point x="641" y="533"/>
      <point x="641" y="475"/>
      <point x="641" y="533" type="curve"/>
      <point x="578" y="533"/>
      <point x="641" y="533"/>
      <point x="578" y="533" type="curve"/>
      <point x="414" y="533"/>
      <point x="250" y="533"/>
      <point x="86" y="533" type="curve"/>
    </contour>
    <contour>
      <point x="86" y="475"/>
      <point x="209" y="475"/>
      <point x="86" y="475" type="curve"/>
      <point x="86" y="475"/>
      <point x="86" y="475"/>
      <point x="86" y="475" type="curve"/>
      <point x="209" y="475"/>
      <point x="86" y="475"/>
      <point x="209" y="475" type="curve"/>
      <point x="209" y="475"/>
      <point x="209" y="475"/>
      <point x="209" y="475" type="curve"/>
    </contour>
    <contour>
      <point x="641" y="58"/>
      <point x="519" y="58"/>
      <point x="641" y="58" type="curve"/>
      <point x="641" y="58"/>
      <point x="641" y="58"/>
      <point x="641" y="58" type="curve"/>
      <point x="519" y="58"/>
      <point x="641" y="58"/>
      <point x="519" y="58" type="curve"/>
      <point x="519" y="58"/>
      <point x="519" y="58"/>
      <point x="519" y="58" type="curve"/>
    </contour>
  </outline>
</glyph>
<glyph name="tadeva" format="1">
  <advance width="916"/>
  <unicode hex="0924"/>
  <outline>
    <contour>
      <point x="454" y="104"/>
      <point x="352" y="11"/>
      <point x="454" y="104" type="curve"/>
      <point x="348" y="163"/>
      <point x="241" y="195"/>
      <point x="241" y="314" type="curve"/>
      <point x="241" y="388"/>
      <point x="320" y="386"/>
      <point x="405" y="386" type="curve"/>
      <point x="505" y="386"/>
      <point x="606" y="386"/>
      <point x="706" y="386" type="curve"/>
      <point x="706" y="503"/>
      <point x="706" y="386"/>
      <point x="706" y="503" type="curve"/>
      <point x="603" y="503"/>
      <point x="500" y="503"/>
      <point x="398" y="503" type="curve"/>
      <point x="223" y="503"/>
      <point x="73" y="467"/>
      <point x="73" y="314" type="curve"/>
      <point x="73" y="152"/>
      <point x="203" y="86"/>
      <point x="352" y="11" type="curve"/>
    </contour>
    <contour>
      <point x="707" y="0"/>
      <point x="707" y="117"/>
      <point x="707" y="0" type="curve"/>
      <point x="707" y="0"/>
      <point x="707" y="0"/>
      <point x="707" y="0" type="curve"/>
      <point x="707" y="117"/>
      <point x="707" y="0"/>
      <point x="707" y="117" type="curve"/>
      <point x="707" y="117"/>
      <point x="707" y="117"/>
      <point x="707" y="117" type="curve"/>
    </contour>
    <contour>
      <point x="785" y="0"/>
      <point x="624" y="0"/>
      <point x="785" y="0" type="curve"/>
      <point x="785" y="237"/>
      <point x="785" y="473"/>
      <point x="785" y="710" type="curve"/>
      <point x="624" y="710"/>
      <point x="785" y="710"/>
      <point x="624" y="710" type="curve"/>
      <point x="624" y="473"/>
      <point x="624" y="237"/>
      <point x="624" y="0" type="curve"/>
    </contour>
    <contour>
      <point x="30" y="605"/>
      <point x="30" y="722"/>
      <point x="30" y="605" type="curve"/>
      <point x="315" y="605"/>
      <point x="600" y="605"/>
      <point x="885" y="605" type="curve"/>
      <point x="885" y="722"/>
      <point x="885" y="605"/>
      <point x="885" y="722" type="curve"/>
      <point x="600" y="722"/>
      <point x="315" y="722"/>
      <point x="30" y="722" type="curve"/>
    </contour>
  </outline>
</glyph>
